<svg width="547" height="92" viewBox="0 0 547 92" fill="none" xmlns="http://www.w3.org/2000/svg">
<path d="M369.812 75V67.4927H377.319V75H369.812ZM386.459 63.3911L392.978 62.3657C393.344 64.978 394.357 66.98 396.018 68.3716C397.702 69.7632 400.046 70.459 403.049 70.459C406.076 70.459 408.322 69.8486 409.787 68.6279C411.252 67.3828 411.984 65.9302 411.984 64.27C411.984 62.7808 411.337 61.6089 410.043 60.7544C409.14 60.1685 406.894 59.4238 403.305 58.5205C398.471 57.2998 395.114 56.25 393.234 55.3711C391.379 54.4678 389.963 53.2349 388.986 51.6724C388.034 50.0854 387.558 48.3398 387.558 46.4355C387.558 44.7021 387.949 43.103 388.73 41.6382C389.536 40.1489 390.622 38.916 391.989 37.9395C393.015 37.1826 394.406 36.5479 396.164 36.0352C397.946 35.498 399.851 35.2295 401.877 35.2295C404.929 35.2295 407.602 35.6689 409.897 36.5479C412.216 37.4268 413.925 38.623 415.024 40.1367C416.123 41.626 416.879 43.6279 417.294 46.1426L410.849 47.0215C410.556 45.0195 409.702 43.457 408.286 42.334C406.894 41.2109 404.917 40.6494 402.353 40.6494C399.326 40.6494 397.165 41.1499 395.871 42.1509C394.577 43.1519 393.93 44.3237 393.93 45.6665C393.93 46.521 394.199 47.29 394.736 47.9736C395.273 48.6816 396.115 49.2676 397.263 49.7314C397.922 49.9756 399.863 50.5371 403.085 51.416C407.749 52.6611 410.996 53.6865 412.827 54.4922C414.682 55.2734 416.135 56.4209 417.185 57.9346C418.234 59.4482 418.759 61.3281 418.759 63.5742C418.759 65.7715 418.112 67.8467 416.818 69.7998C415.549 71.7285 413.706 73.23 411.289 74.3042C408.872 75.354 406.137 75.8789 403.085 75.8789C398.032 75.8789 394.174 74.8291 391.513 72.7295C388.876 70.6299 387.192 67.5171 386.459 63.3911ZM426.596 75V21.3135H433.188V40.5762C436.264 37.0117 440.146 35.2295 444.833 35.2295C447.714 35.2295 450.217 35.8032 452.341 36.9507C454.465 38.0737 455.979 39.6362 456.882 41.6382C457.81 43.6401 458.273 46.5454 458.273 50.354V75H451.682V50.354C451.682 47.0581 450.961 44.6655 449.521 43.1763C448.105 41.6626 446.091 40.9058 443.479 40.9058C441.525 40.9058 439.682 41.4185 437.949 42.4438C436.24 43.4448 435.019 44.812 434.287 46.5454C433.554 48.2788 433.188 50.6714 433.188 53.7231V75H426.596ZM465.891 55.5542C465.891 48.3521 467.893 43.0176 471.896 39.5508C475.241 36.6699 479.318 35.2295 484.128 35.2295C489.475 35.2295 493.845 36.9873 497.238 40.5029C500.632 43.9941 502.329 48.8281 502.329 55.0049C502.329 60.0098 501.572 63.9526 500.058 66.8335C498.569 69.6899 496.384 71.9116 493.503 73.4985C490.646 75.0854 487.521 75.8789 484.128 75.8789C478.684 75.8789 474.277 74.1333 470.908 70.6421C467.563 67.1509 465.891 62.1216 465.891 55.5542ZM472.666 55.5542C472.666 60.5347 473.752 64.27 475.925 66.7603C478.098 69.2261 480.832 70.459 484.128 70.459C487.399 70.459 490.122 69.2139 492.294 66.7236C494.467 64.2334 495.554 60.437 495.554 55.3345C495.554 50.5249 494.455 46.8872 492.258 44.4214C490.085 41.9312 487.375 40.686 484.128 40.686C480.832 40.686 478.098 41.9189 475.925 44.3848C473.752 46.8506 472.666 50.5737 472.666 55.5542ZM510.092 89.9048V36.1084H516.098V41.1621C517.514 39.1846 519.113 37.7075 520.896 36.731C522.678 35.73 524.838 35.2295 527.377 35.2295C530.698 35.2295 533.627 36.084 536.167 37.793C538.706 39.502 540.622 41.9189 541.916 45.0439C543.21 48.1445 543.857 51.5503 543.857 55.2612C543.857 59.2407 543.137 62.8296 541.696 66.0278C540.28 69.2017 538.205 71.6431 535.471 73.3521C532.761 75.0366 529.904 75.8789 526.901 75.8789C524.704 75.8789 522.727 75.415 520.969 74.4873C519.235 73.5596 517.807 72.3877 516.684 70.9717V89.9048H510.092ZM516.062 55.7739C516.062 60.7788 517.075 64.4775 519.101 66.8701C521.127 69.2627 523.581 70.459 526.462 70.459C529.392 70.459 531.894 69.2261 533.969 66.7603C536.069 64.27 537.119 60.4248 537.119 55.2246C537.119 50.2686 536.093 46.5576 534.042 44.0918C532.016 41.626 529.587 40.3931 526.755 40.3931C523.947 40.3931 521.457 41.7114 519.284 44.3481C517.136 46.9604 516.062 50.769 516.062 55.7739Z" fill="#1F1F1F"/>
<path fill-rule="evenodd" clip-rule="evenodd" d="M249.157 65.2974C245.824 65.2974 242.785 63.9975 240.432 61.5976C239.276 60.4196 238.368 59.0145 237.761 57.4675C237.154 55.9205 236.862 54.264 236.902 52.5983C236.902 48.9986 238.079 45.9988 240.432 43.599C242.785 41.0992 245.824 39.8993 249.255 39.8993C252.686 39.8993 255.53 41.0992 257.981 43.599C260.333 45.9988 261.608 49.0986 261.608 52.5983C261.608 56.0981 260.333 59.0978 257.981 61.5976C256.837 62.7988 255.464 63.7471 253.946 64.3836C252.428 65.0201 250.798 65.3311 249.157 65.2974ZM249.157 30.1C246.248 30.0735 243.364 30.6366 240.67 31.7566C237.977 32.8766 235.528 34.5312 233.467 36.6243C231.405 38.7175 229.772 41.2074 228.662 43.9496C227.552 46.6918 226.987 49.6316 227 52.5983C227 55.5566 227.575 58.4856 228.69 61.2162C229.806 63.9468 231.441 66.4249 233.502 68.5075C235.562 70.59 238.006 72.2356 240.693 73.3494C243.38 74.4632 246.257 75.0231 249.157 74.9966C252.066 75.0485 254.956 74.4994 257.652 73.3824C260.347 72.2654 262.794 70.6036 264.843 68.4971C269.255 64.2974 271.412 58.8978 271.412 52.4983C271.412 46.1988 269.255 40.8992 264.941 36.4995C262.872 34.3987 260.406 32.7483 257.693 31.6483C254.98 30.5483 252.076 30.0215 249.157 30.1ZM294.451 30.1C289.451 30.1 285.235 31.6999 282 35.0996C278.765 38.3994 277.098 42.6991 277.098 47.8987V70.597C277.098 71.3926 277.408 72.1556 277.96 72.7181C278.511 73.2807 279.259 73.5967 280.039 73.5967H283.961C284.741 73.5967 285.489 73.2807 286.041 72.7181C286.592 72.1556 286.902 71.3926 286.902 70.597V47.7987C286.902 43.099 290.039 39.9993 294.451 39.9993C299.059 39.9993 302.098 43.099 302.098 47.7987V70.597C302.098 71.3926 302.408 72.1556 302.96 72.7181C303.511 73.2807 304.259 73.5967 305.039 73.5967H309.059C309.839 73.5967 310.587 73.2807 311.139 72.7181C311.69 72.1556 312 71.3926 312 70.597V47.8987C312 42.6991 310.333 38.3994 307.098 34.9996C303.863 31.6999 299.647 30 294.451 30" fill="#1F1F1F"/>
<path fill-rule="evenodd" clip-rule="evenodd" d="M340.4 38.9C335.1 38.9 331.4 41.3 329.4 46.2C329.2 46.3 329.3 46.5 329.3 46.5C329.339 46.5694 329.398 46.6255 329.47 46.6611C329.541 46.6968 329.621 46.7103 329.7 46.7H351.5V46.2C349.5 41.2 345.9 38.8 340.5 38.8L340.4 38.9ZM340.7 74.9C337.725 74.9399 334.772 74.3866 332.013 73.2725C329.254 72.1584 326.744 70.5058 324.631 68.4111C322.518 66.3165 320.843 63.8218 319.705 61.0728C318.566 58.3237 317.987 55.3754 318 52.4C318 46.1 320.2 40.8 324.4 36.5C328.8 32.2 334.2 30 340.4 30C346.7 30 352 32 356.2 36.2C360.4 40.4 362.5 45.4 362.5 51.3C362.5 53.1 361.1 54.4 359.1 54.4H328.8L328.5 54.5V55.1C328.9 57.9 330.2 60.3 332.5 62.4C334.8 64.4 337.5 65.4 340.7 65.4C344.7 65.4 347.9 63.9 350.5 60.9C351.3 59.9 352.2 59.5 353.2 59.5C353.9 59.5 354.5 59.7 355.2 60L357.8 61.2C358.8 61.7 359.5 62.5 359.6 63.4C359.8 64.2 359.6 65.1 358.9 65.7C356.872 68.6267 354.145 71.0008 350.967 72.6073C347.789 74.2138 344.26 75.0019 340.7 74.9Z" fill="#1F1F1F"/>
<path fill-rule="evenodd" clip-rule="evenodd" d="M214 75.3C212.4 75.3 211 74 211 72.5V18.9C211 17.2 212.3 16 214 16H218.1C219.8 16 221.1 17.3 221.1 18.9V72.5C221.1 74 219.7 75.3 218.1 75.3H214.1" fill="#1F1F1F"/>
<path fill-rule="evenodd" clip-rule="evenodd" d="M198.3 75.3C196.7 75.3 195.3 74 195.3 72.5V18.9C195.3 17.2 196.6 16 198.3 16H202.4C204.1 16 205.4 17.3 205.4 18.9V72.5C205.4 74 204 75.3 202.4 75.3H198.4M167.4 39.3C162.1 39.3 158.4 41.7 156.4 46.6C156.2 46.7 156.3 46.9 156.3 46.9C156.339 46.9694 156.398 47.0255 156.47 47.0611C156.541 47.0968 156.621 47.1103 156.7 47.1H178.5V46.6C176.5 41.6 172.9 39.2 167.5 39.2L167.4 39.3ZM167.7 75.3C164.725 75.3399 161.772 74.7866 159.013 73.6725C156.254 72.5584 153.744 70.9058 151.631 68.8111C149.518 66.7165 147.843 64.2218 146.705 61.4728C145.566 58.7237 144.987 55.7754 145 52.8C145 46.5 147.2 41.2 151.4 36.9C155.8 32.6 161.2 30.4 167.4 30.4C173.7 30.4 179 32.4 183.2 36.6C187.4 40.8 189.5 45.8 189.5 51.7C189.5 53.5 188.1 54.8 186.1 54.8H155.8L155.5 54.9V55.5C155.9 58.3 157.2 60.7 159.5 62.8C161.8 64.8 164.5 65.8 167.7 65.8C171.7 65.8 174.9 64.3 177.5 61.3C178.3 60.3 179.2 59.9 180.2 59.9C180.9 59.9 181.5 60.1 182.2 60.4L184.8 61.6C185.8 62.1 186.5 62.9 186.6 63.8C186.8 64.6 186.6 65.5 185.9 66.1C183.872 69.0267 181.145 71.4008 177.967 73.0073C174.789 74.6138 171.26 75.4019 167.7 75.3Z" fill="#1F1F1F"/>
<path fill-rule="evenodd" clip-rule="evenodd" d="M119.646 75C111.378 75 104.335 72.0667 98.8226 66.7867C96.526 64.5867 96.3729 62.3867 98.5164 60.04L99.8944 58.5733C101.119 57.1067 102.497 56.3733 103.875 56.3733C105.1 56.3733 106.325 56.96 107.55 57.84C111.531 61.0667 115.665 62.68 119.493 62.68C124.086 62.68 127.148 60.1867 127.148 56.3733C127.148 52.7067 124.392 50.5067 116.124 46.9867C104.335 42.2933 98.2102 35.5467 98.2102 27.04C98.2102 16.6267 107.397 9 120.258 9C126.383 9 131.742 10.4667 136.641 13.4C137.866 14.28 138.632 15.3067 138.938 16.6267C139.091 18.0933 138.632 19.56 137.713 20.7333L136.488 22.3467C135.263 23.8133 133.885 24.5467 132.354 24.5467C131.435 24.5467 130.517 24.2533 129.445 23.8133C126.383 22.0533 123.474 21.1733 120.871 21.1733C115.971 21.1733 113.215 23.08 113.215 26.6C113.215 29.8267 116.277 32.4667 123.014 35.2533C136.335 40.68 142 46.6933 142 55.64C142 61.2133 139.856 65.9067 135.569 69.4267C131.207 73.162 125.49 75.1103 119.646 74.8533" fill="#1F1F1F"/>
<path d="M79.5528 0H6.17886C2.76637 0 0 2.74276 0 6.12613V78.8739C0 82.2572 2.76637 85 6.17886 85H79.5528C82.9653 85 85.7317 82.2572 85.7317 78.8739V6.12613C85.7317 2.74276 82.9653 0 79.5528 0Z" fill="#FC2523"/>
<path d="M34.0964 46.6184C32.8259 39.0888 27.8741 35.6013 29.4816 33.1864C31.1099 30.5491 37.0635 36.3095 38.5381 42.0119C39.2258 44.5821 43.1187 43.5126 42.431 40.9424C41.1671 36.0546 37.9768 32.1178 34.7736 29.7679C32.0866 27.8481 28.2209 27.9018 26.2227 30.7101C22.5024 36.0775 28.9711 40.1104 30.0747 47.2611C31.0855 53.0563 26.4178 57.5543 21.7065 58.1814C15.8207 59.108 11.4017 54.0671 8.4002 49.0096C7.00204 46.6462 3.52502 48.8611 4.91441 51.1374C7.2828 55.0284 9.27682 57.3291 12.2072 59.5317C22.2568 67.1078 36.0503 58.3921 34.0964 46.6184ZM22.1525 47.6088C22.708 50.1489 19.1198 52.1113 14.3632 43.2744C13.0885 40.854 9.59388 42.8946 10.813 45.1888C18.6409 59.7807 27.3727 52.9179 26.0246 46.7617C25.1973 42.7969 17.7047 34.5557 22.9377 27.9724C30.004 19.0826 40.6145 26.2476 44.7097 36.2109C45.776 38.6973 49.4844 37.0746 48.465 34.6272C47.4369 32.0929 46.1031 29.9429 44.7748 28.2768C37.7177 18.8007 26.8302 16.5974 19.8402 25.3911C12.7357 34.329 21.4856 44.8163 22.1525 47.6088Z" fill="white"/>
<path d="M41.0744 37.9702C41.772 35.5611 42.9008 33.3135 44.4385 31.3359C52.0365 21.564 63.001 22.5826 70.1665 28.4872C77.2177 34.2991 80.5013 44.9582 72.9935 54.6137C71.4554 56.5913 69.5693 58.2215 67.4327 59.4575C65.6204 60.5145 64.0266 57.631 65.9067 56.566C67.6505 55.5168 69.1972 54.2435 70.4939 52.5761C76.6749 44.6267 74.0464 35.8317 68.131 30.9459C61.4652 25.5124 52.4556 26.2772 47.0284 33.2571C45.7319 34.9246 44.7686 36.8002 44.2064 38.8761C43.5761 40.9599 40.5122 40.0462 41.0744 37.9702ZM61.2456 51.4992C62.9901 50.7673 64.4085 49.5796 65.4262 48.1915C67.9053 44.764 67.9549 39.9258 63.7888 36.5298C57.8811 31.7138 51.1093 35.887 50.0355 42.361C49.723 44.5137 46.5237 43.9331 46.9422 41.8033C48.3804 32.712 57.9775 27.6108 65.779 33.9706C71.3839 38.5397 71.5358 45.5061 67.9331 50.2987C66.5843 52.1133 64.7503 53.5963 62.5072 54.4919C60.5358 55.3559 59.3423 52.3552 61.2456 51.4992Z" fill="white"/>
<path d="M48.597 40.7752L48.2741 42.6698C48.2418 42.8594 48.2384 43.0531 48.2642 43.2437L48.4843 44.8746C48.5066 45.0406 48.5509 45.2027 48.6157 45.3566L49.2836 46.9417C49.3362 47.0665 49.402 47.1851 49.4798 47.2952L50.5544 48.8154C50.628 48.9194 50.7119 49.0152 50.8047 49.1016L52.1879 50.3874C52.2669 50.4608 52.352 50.527 52.4424 50.5851L53.9562 51.5591" stroke="white" stroke-width="4"/>
<path d="M50.9501 58.5232C50.4808 59.7039 50.4283 60.9832 50.7405 62.1813C51.0723 63.3557 51.7449 64.4296 52.7764 65.2597C58.857 70.1533 66.2849 61.0804 60.2042 56.1868C59.1728 55.3568 57.9647 54.9368 56.7373 54.8565C55.5002 54.788 54.2385 55.1139 53.1794 55.8001C52.9442 55.9659 52.8574 56.2906 53.0246 56.5238C53.1918 56.757 53.5193 56.843 53.7545 56.6772C54.6392 56.107 55.6543 55.8391 56.6936 55.9062C57.6873 55.9562 58.681 56.322 59.5325 57.0073C64.5338 61.0322 58.4396 68.476 53.4384 64.4512C52.5868 63.7659 52.0311 62.8649 51.7677 61.923C51.4974 60.9166 51.5531 59.8765 51.9243 58.9127C52.0396 58.6505 51.8971 58.3385 51.6228 58.2361C51.3583 58.1219 51.0653 58.2609 50.9501 58.5232ZM60.134 61.2787C60.2424 60.636 60.1844 59.9779 59.9667 59.3688C59.7297 58.7835 59.3548 58.2451 58.8511 57.8397C58.0475 57.193 57.0651 56.9349 56.0992 57.0454C55.1672 57.1632 54.2592 57.616 53.607 58.4127C52.9547 59.2094 52.6944 60.1835 52.7698 61.1121C52.8692 62.06 53.326 62.9602 54.1296 63.6069C54.6333 64.0122 55.2321 64.2772 55.8683 64.375C56.5045 64.4727 57.1661 64.3936 57.7781 64.1563C58.0636 64.0507 58.196 63.7431 58.0918 63.4816C57.9755 63.2105 57.6772 63.0889 57.4037 63.2041C56.9588 63.3589 56.4808 63.4081 56.0229 63.3355C55.577 63.2726 55.1634 63.0975 54.7915 62.7982C54.2158 62.335 53.8948 61.6821 53.8368 61.0239C53.7548 60.3464 53.9553 59.6398 54.4226 59.069C54.8996 58.4864 55.5558 58.1466 56.2413 58.0868C56.9127 57.9959 57.6134 58.185 58.1891 58.6483C58.5609 58.9475 58.8211 59.3344 58.9629 59.7444C59.1385 60.1619 59.1784 60.6477 59.1171 61.1113C59.0596 61.4003 59.2508 61.6528 59.5423 61.7099C59.8316 61.7454 60.0884 61.5774 60.134 61.2787Z" fill="white"/>
</svg>
